<svg width="40" height="48" viewBox="0 0 40 48" fill="none" xmlns="http://www.w3.org/2000/svg">
<path d="M36.215 48C35.6457 47.9996 35.0839 47.8781 34.5714 47.6443C34.0586 47.4105 33.6084 47.0704 33.2541 46.6496C32.1577 45.5312 23.6843 37.6689 18.492 32.8753C18.1327 32.5481 17.8454 32.157 17.6468 31.7244C17.4481 31.2919 17.342 30.8265 17.3346 30.3551C17.3271 29.8836 17.4185 29.4154 17.6034 28.9774C17.7883 28.5394 18.0631 28.1404 18.4119 27.8031C18.7607 27.4661 19.1768 27.1974 19.636 27.0126C20.0952 26.8279 20.5886 26.7311 21.0877 26.7272C21.5868 26.7234 22.0817 26.8129 22.544 26.9906C23.0064 27.1684 23.4268 27.4307 23.7814 27.7626C23.8184 27.7969 27.558 31.2497 31.2695 34.6989L32.4325 35.7799V18.9903C32.4325 12.4609 26.8555 7.14887 20 7.14887C13.1446 7.14887 7.56757 12.4609 7.56757 18.9903V44.4253C7.56757 45.3733 7.16891 46.2825 6.45932 46.9528C5.74973 47.6231 4.7873 47.9996 3.78377 47.9996C2.78025 47.9996 1.81784 47.6231 1.10824 46.9528C0.398648 46.2825 0 45.3733 0 44.4253V18.9903C0 8.51893 8.97193 0 20 0C31.028 0 40 8.51893 40 18.9903V44.4253C39.9995 45.3733 39.6007 46.2825 38.8909 46.953C38.1811 47.6233 37.2186 47.9998 36.215 48Z" fill="url(#paint0_linear_5_14)"/>
<path d="M20.0002 22.4261C22.3885 22.4261 24.3245 20.5972 24.3245 18.341C24.3245 16.0849 22.3885 14.2559 20.0002 14.2559C17.6119 14.2559 15.6758 16.0849 15.6758 18.341C15.6758 20.5972 17.6119 22.4261 20.0002 22.4261Z" fill="url(#paint1_linear_5_14)"/>
<defs>
<linearGradient id="paint0_linear_5_14" x1="20" y1="48.576" x2="20" y2="0.143998" gradientUnits="userSpaceOnUse">
<stop stop-color="#00C0F4"/>
<stop offset="1" stop-color="#12ECA0"/>
</linearGradient>
<linearGradient id="paint1_linear_5_14" x1="20.0002" y1="48.563" x2="20.0002" y2="0.137689" gradientUnits="userSpaceOnUse">
<stop stop-color="#00C0F4"/>
<stop offset="1" stop-color="#12ECA0"/>
</linearGradient>
</defs>
</svg>
