<svg width="22" height="24" viewBox="0 0 22 24" fill="none" xmlns="http://www.w3.org/2000/svg">
<mask id="mask0_42_1215" style="mask-type:alpha" maskUnits="userSpaceOnUse" x="0" y="0" width="22" height="24">
<path d="M21.5607 13.0616C22.1464 12.4759 22.1464 11.5261 21.5607 10.9403L12.0147 1.39437C11.4289 0.808588 10.4792 0.808588 9.8934 1.39437C9.30761 1.98016 9.30761 2.92991 9.8934 3.5157L18.3787 12.001L9.8934 20.4863C9.30761 21.072 9.30761 22.0218 9.8934 22.6076C10.4792 23.1934 11.4289 23.1934 12.0147 22.6076L21.5607 13.0616ZM1.5 13.501L20.5 13.501L20.5 10.501L1.5 10.501L1.5 13.501Z" fill="black"/>
<circle cx="1.5" cy="12.001" r="1.5" fill="black"/>
</mask>
<g mask="url(#mask0_42_1215)">
<circle cx="10.5" cy="12.001" r="16" fill="#F0FFFA"/>
</g>
</svg>
